<?xml version="1.0" encoding="utf-8"?>
<!-- Generator: Adobe Illustrator 21.1.0, SVG Export Plug-In . SVG Version: 6.00 Build 0)  -->
<svg version="1.1" id="图层_1" xmlns="http://www.w3.org/2000/svg" xmlns:xlink="http://www.w3.org/1999/xlink" x="0px" y="0px"
	 viewBox="0 0 800 400" style="enable-background:new 0 0 800 400;" xml:space="preserve">
<style type="text/css">
	.st0{fill:#32CDFC;}
	.st1{fill:#2512AD;}
	.st2{fill:#268DC6;}
</style>
<rect class="st0" width="800" height="399.7"/>
<g>
	<g>
		<polygon class="st1" points="40,49.6 0,66.1 0,17 40,0.4 		"/>
		<polygon class="st2" points="80,66.1 40,49.6 40,0.4 80,17 		"/>
		<polygon class="st1" points="40,83.1 80,66.5 80,115.6 40,132.2 		"/>
		<polygon class="st2" points="0,66.5 40,83.1 40,132.2 0,115.6 		"/>
	</g>
	<g>
		<polygon class="st1" points="120,49.8 80,66.3 80,17.2 120,0.6 		"/>
		<polygon class="st2" points="160,66.3 120,49.8 120,0.6 160,17.2 		"/>
		<polygon class="st1" points="120,83.3 160,66.7 160,115.9 120,132.4 		"/>
		<polygon class="st2" points="80,66.7 120,83.3 120,132.4 80,115.9 		"/>
	</g>
	<g>
		<polygon class="st1" points="200,50 160,66.5 160,17.4 200,0.8 		"/>
		<polygon class="st2" points="240,66.5 200,50 200,0.8 240,17.4 		"/>
		<polygon class="st1" points="200,83.5 240,66.9 240,116.1 200,132.6 		"/>
		<polygon class="st2" points="160,66.9 200,83.5 200,132.6 160,116.1 		"/>
	</g>
	<g>
		<polygon class="st1" points="280,50.2 240,66.7 240,17.6 280,1.1 		"/>
		<polygon class="st2" points="320,66.7 280,50.2 280,1.1 320,17.6 		"/>
		<polygon class="st1" points="280,83.7 320,67.2 320,116.3 280,132.8 		"/>
		<polygon class="st2" points="240,67.2 280,83.7 280,132.8 240,116.3 		"/>
	</g>
	<g>
		<polygon class="st1" points="360,50.4 320,66.9 320,17.8 360,1.3 		"/>
		<polygon class="st2" points="400,66.9 360,50.4 360,1.3 400,17.8 		"/>
		<polygon class="st1" points="360,83.9 400,67.4 400,116.5 360,133 		"/>
		<polygon class="st2" points="320,67.4 360,83.9 360,133 320,116.5 		"/>
	</g>
	<g>
		<polygon class="st1" points="440,50.6 400,67.2 400,18 440,1.5 		"/>
		<polygon class="st2" points="480,67.2 440,50.6 440,1.5 480,18 		"/>
		<polygon class="st1" points="440,84.1 480,67.6 480,116.7 440,133.2 		"/>
		<polygon class="st2" points="400,67.6 440,84.1 440,133.2 400,116.7 		"/>
	</g>
	<g>
		<polygon class="st1" points="520,50.8 480,67.4 480,18.2 520,1.7 		"/>
		<polygon class="st2" points="560,67.4 520,50.8 520,1.7 560,18.2 		"/>
		<polygon class="st1" points="520,84.3 560,67.8 560,116.9 520,133.5 		"/>
		<polygon class="st2" points="480,67.8 520,84.3 520,133.5 480,116.9 		"/>
	</g>
	<g>
		<polygon class="st1" points="600,51 560,67.6 560,18.4 600,1.9 		"/>
		<polygon class="st2" points="640,67.6 600,51 600,1.9 640,18.4 		"/>
		<polygon class="st1" points="600,84.5 640,68 640,117.1 600,133.7 		"/>
		<polygon class="st2" points="560,68 600,84.5 600,133.7 560,117.1 		"/>
	</g>
	<g>
		<polygon class="st1" points="680,51.3 640,67.8 640,18.7 680,2.1 		"/>
		<polygon class="st2" points="720,67.8 680,51.3 680,2.1 720,18.7 		"/>
		<polygon class="st1" points="680,84.8 720,68.2 720,117.3 680,133.9 		"/>
		<polygon class="st2" points="640,68.2 680,84.8 680,133.9 640,117.3 		"/>
	</g>
	<g>
		<polygon class="st1" points="760,51.5 720,68 720,18.9 760,2.3 		"/>
		<polygon class="st2" points="800,68 760,51.5 760,2.3 800,18.9 		"/>
		<polygon class="st1" points="760,85 800,68.4 800,117.6 760,134.1 		"/>
		<polygon class="st2" points="720,68.4 760,85 760,134.1 720,117.6 		"/>
	</g>
	<g>
		<polygon class="st1" points="40,183.2 0,199.8 0,150.6 40,134.1 		"/>
		<polygon class="st2" points="80,199.8 40,183.2 40,134.1 80,150.6 		"/>
		<polygon class="st1" points="40,216.7 80,200.2 80,249.3 40,265.9 		"/>
		<polygon class="st2" points="0,200.2 40,216.7 40,265.9 0,249.3 		"/>
	</g>
	<g>
		<polygon class="st1" points="120,183.4 80,200 80,150.8 120,134.3 		"/>
		<polygon class="st2" points="160,200 120,183.4 120,134.3 160,150.8 		"/>
		<polygon class="st1" points="120,216.9 160,200.4 160,249.5 120,266.1 		"/>
		<polygon class="st2" points="80,200.4 120,216.9 120,266.1 80,249.5 		"/>
	</g>
	<g>
		<polygon class="st1" points="200,183.7 160,200.2 160,151.1 200,134.5 		"/>
		<polygon class="st2" points="240,200.2 200,183.7 200,134.5 240,151.1 		"/>
		<polygon class="st1" points="200,217.1 240,200.6 240,249.7 200,266.3 		"/>
		<polygon class="st2" points="160,200.6 200,217.1 200,266.3 160,249.7 		"/>
	</g>
	<g>
		<polygon class="st1" points="280,183.9 240,200.4 240,151.3 280,134.7 		"/>
		<polygon class="st2" points="320,200.4 280,183.9 280,134.7 320,151.3 		"/>
		<polygon class="st1" points="280,217.4 320,200.8 320,250 280,266.5 		"/>
		<polygon class="st2" points="240,200.8 280,217.4 280,266.5 240,250 		"/>
	</g>
	<g>
		<polygon class="st1" points="360,184.1 320,200.6 320,151.5 360,134.9 		"/>
		<polygon class="st2" points="400,200.6 360,184.1 360,134.9 400,151.5 		"/>
		<polygon class="st1" points="360,217.6 400,201 400,250.2 360,266.7 		"/>
		<polygon class="st2" points="320,201 360,217.6 360,266.7 320,250.2 		"/>
	</g>
	<g>
		<polygon class="st1" points="440,184.3 400,200.8 400,151.7 440,135.2 		"/>
		<polygon class="st2" points="480,200.8 440,184.3 440,135.2 480,151.7 		"/>
		<polygon class="st1" points="440,217.8 480,201.2 480,250.4 440,266.9 		"/>
		<polygon class="st2" points="400,201.2 440,217.8 440,266.9 400,250.4 		"/>
	</g>
	<g>
		<polygon class="st1" points="520,184.5 480,201 480,151.9 520,135.4 		"/>
		<polygon class="st2" points="560,201 520,184.5 520,135.4 560,151.9 		"/>
		<polygon class="st1" points="520,218 560,201.5 560,250.6 520,267.1 		"/>
		<polygon class="st2" points="480,201.5 520,218 520,267.1 480,250.6 		"/>
	</g>
	<g>
		<polygon class="st1" points="600,184.7 560,201.2 560,152.1 600,135.6 		"/>
		<polygon class="st2" points="640,201.2 600,184.7 600,135.6 640,152.1 		"/>
		<polygon class="st1" points="600,218.2 640,201.7 640,250.8 600,267.3 		"/>
		<polygon class="st2" points="560,201.7 600,218.2 600,267.3 560,250.8 		"/>
	</g>
	<g>
		<polygon class="st1" points="680,184.9 640,201.5 640,152.3 680,135.8 		"/>
		<polygon class="st2" points="720,201.5 680,184.9 680,135.8 720,152.3 		"/>
		<polygon class="st1" points="680,218.4 720,201.9 720,251 680,267.6 		"/>
		<polygon class="st2" points="640,201.9 680,218.4 680,267.6 640,251 		"/>
	</g>
	<g>
		<polygon class="st1" points="760,185.1 720,201.7 720,152.5 760,136 		"/>
		<polygon class="st2" points="800,201.7 760,185.1 760,136 800,152.5 		"/>
		<polygon class="st1" points="760,218.6 800,202.1 800,251.2 760,267.8 		"/>
		<polygon class="st2" points="720,202.1 760,218.6 760,267.8 720,251.2 		"/>
	</g>
	<g>
		<polygon class="st1" points="40,316.9 0,333.4 0,284.3 40,267.8 		"/>
		<polygon class="st2" points="80,333.4 40,316.9 40,267.8 80,284.3 		"/>
		<polygon class="st1" points="40,350.4 80,333.9 80,383 40,399.5 		"/>
		<polygon class="st2" points="0,333.9 40,350.4 40,399.5 0,383 		"/>
	</g>
	<g>
		<polygon class="st1" points="120,317.1 80,333.6 80,284.5 120,268 		"/>
		<polygon class="st2" points="160,333.6 120,317.1 120,268 160,284.5 		"/>
		<polygon class="st1" points="120,350.6 160,334.1 160,383.2 120,399.7 		"/>
		<polygon class="st2" points="80,334.1 120,350.6 120,399.7 80,383.2 		"/>
	</g>
	<g>
		<polygon class="st1" points="200,317.3 160,333.9 160,284.7 200,268.2 		"/>
		<polygon class="st2" points="240,333.9 200,317.3 200,268.2 240,284.7 		"/>
		<polygon class="st1" points="200,350.8 240,334.3 240,383.4 200,400 		"/>
		<polygon class="st2" points="160,334.3 200,350.8 200,400 160,383.4 		"/>
	</g>
	<g>
		<polygon class="st1" points="280,317.5 240,334.1 240,284.9 280,268.4 		"/>
		<polygon class="st2" points="320,334.1 280,317.5 280,268.4 320,284.9 		"/>
		<polygon class="st1" points="280,351 320,334.5 320,383.6 280,400.2 		"/>
		<polygon class="st2" points="240,334.5 280,351 280,400.2 240,383.6 		"/>
	</g>
	<g>
		<polygon class="st1" points="360,317.7 320,334.3 320,285.2 360,268.6 		"/>
		<polygon class="st2" points="400,334.3 360,317.7 360,268.6 400,285.2 		"/>
		<polygon class="st1" points="360,351.2 400,334.7 400,383.8 360,400.4 		"/>
		<polygon class="st2" points="320,334.7 360,351.2 360,400.4 320,383.8 		"/>
	</g>
	<g>
		<polygon class="st1" points="440,318 400,334.5 400,285.4 440,268.8 		"/>
		<polygon class="st2" points="480,334.5 440,318 440,268.8 480,285.4 		"/>
		<polygon class="st1" points="440,351.5 480,334.9 480,384 440,400.6 		"/>
		<polygon class="st2" points="400,334.9 440,351.5 440,400.6 400,384 		"/>
	</g>
	<g>
		<polygon class="st1" points="520,318.2 480,334.7 480,285.6 520,269 		"/>
		<polygon class="st2" points="560,334.7 520,318.2 520,269 560,285.6 		"/>
		<polygon class="st1" points="520,351.7 560,335.1 560,384.3 520,400.8 		"/>
		<polygon class="st2" points="480,335.1 520,351.7 520,400.8 480,384.3 		"/>
	</g>
	<g>
		<polygon class="st1" points="600,318.4 560,334.9 560,285.8 600,269.2 		"/>
		<polygon class="st2" points="640,334.9 600,318.4 600,269.2 640,285.8 		"/>
		<polygon class="st1" points="600,351.9 640,335.3 640,384.5 600,401 		"/>
		<polygon class="st2" points="560,335.3 600,351.9 600,401 560,384.5 		"/>
	</g>
	<g>
		<polygon class="st1" points="680,318.6 640,335.1 640,286 680,269.5 		"/>
		<polygon class="st2" points="720,335.1 680,318.6 680,269.5 720,286 		"/>
		<polygon class="st1" points="680,352.1 720,335.6 720,384.7 680,401.2 		"/>
		<polygon class="st2" points="640,335.6 680,352.1 680,401.2 640,384.7 		"/>
	</g>
	<g>
		<polygon class="st1" points="760,318.8 720,335.3 720,286.2 760,269.7 		"/>
		<polygon class="st2" points="800,335.3 760,318.8 760,269.7 800,286.2 		"/>
		<polygon class="st1" points="760,352.3 800,335.8 800,384.9 760,401.4 		"/>
		<polygon class="st2" points="720,335.8 760,352.3 760,401.4 720,384.9 		"/>
	</g>
</g>
</svg>
