<?xml version="1.0" encoding="utf-8"?>
<!-- Generator: Adobe Illustrator 21.1.0, SVG Export Plug-In . SVG Version: 6.00 Build 0)  -->
<svg version="1.1" id="图层_1" xmlns="http://www.w3.org/2000/svg" xmlns:xlink="http://www.w3.org/1999/xlink" x="0px" y="0px"
	 viewBox="0 0 1000 600" style="enable-background:new 0 0 1000 600;" xml:space="preserve">
<style type="text/css">
	.st0{fill:#0F0933;stroke:#000000;stroke-miterlimit:10;}
	.st1{fill:none;stroke:#29ABE2;stroke-miterlimit:10;}
	.st2{fill:none;stroke:url(#SVGID_1_);stroke-miterlimit:10;}
	.st3{fill:none;stroke:url(#SVGID_2_);stroke-miterlimit:10;}
	.st4{fill:none;stroke:url(#SVGID_3_);stroke-miterlimit:10;}
	.st5{fill:none;stroke:url(#SVGID_4_);stroke-miterlimit:10;}
	.st6{fill:none;stroke:url(#SVGID_5_);stroke-miterlimit:10;}
	.st7{fill:none;stroke:url(#SVGID_6_);stroke-miterlimit:10;}
	.st8{fill:none;stroke:url(#SVGID_7_);stroke-miterlimit:10;}
	.st9{fill:none;stroke:url(#SVGID_8_);stroke-miterlimit:10;}
	.st10{fill:none;stroke:url(#SVGID_9_);stroke-miterlimit:10;}
	.st11{fill:none;stroke:url(#SVGID_10_);stroke-miterlimit:10;}
	.st12{fill:none;stroke:url(#SVGID_11_);stroke-miterlimit:10;}
	.st13{fill:none;stroke:url(#SVGID_12_);stroke-miterlimit:10;}
	.st14{fill:none;stroke:url(#SVGID_13_);stroke-miterlimit:10;}
	.st15{fill:none;stroke:url(#SVGID_14_);stroke-miterlimit:10;}
	.st16{fill:none;stroke:url(#SVGID_15_);stroke-miterlimit:10;}
	.st17{fill:none;stroke:url(#SVGID_16_);stroke-miterlimit:10;}
	.st18{fill:none;stroke:url(#SVGID_17_);stroke-miterlimit:10;}
	.st19{fill:none;stroke:url(#SVGID_18_);stroke-miterlimit:10;}
	.st20{fill:none;stroke:url(#SVGID_19_);stroke-miterlimit:10;}
	.st21{fill:none;stroke:url(#SVGID_20_);stroke-miterlimit:10;}
	.st22{fill:none;stroke:url(#SVGID_21_);stroke-miterlimit:10;}
	.st23{fill:none;stroke:url(#SVGID_22_);stroke-miterlimit:10;}
	.st24{fill:none;stroke:url(#SVGID_23_);stroke-miterlimit:10;}
	.st25{fill:none;stroke:url(#SVGID_24_);stroke-miterlimit:10;}
	.st26{fill:none;stroke:url(#SVGID_25_);stroke-miterlimit:10;}
	.st27{fill:none;stroke:url(#SVGID_26_);stroke-miterlimit:10;}
	.st28{fill:none;stroke:url(#SVGID_27_);stroke-miterlimit:10;}
	.st29{fill:none;stroke:url(#SVGID_28_);stroke-miterlimit:10;}
	.st30{fill:none;stroke:url(#SVGID_29_);stroke-miterlimit:10;}
	.st31{fill:none;stroke:url(#SVGID_30_);stroke-miterlimit:10;}
	.st32{fill:none;stroke:url(#SVGID_31_);stroke-miterlimit:10;}
	.st33{fill:none;stroke:url(#SVGID_32_);stroke-miterlimit:10;}
	.st34{fill:none;stroke:url(#SVGID_33_);stroke-miterlimit:10;}
	.st35{fill:none;stroke:url(#SVGID_34_);stroke-miterlimit:10;}
	.st36{fill:none;stroke:url(#SVGID_35_);stroke-miterlimit:10;}
	.st37{fill:none;stroke:url(#SVGID_36_);stroke-miterlimit:10;}
	.st38{fill:none;stroke:url(#SVGID_37_);stroke-miterlimit:10;}
	.st39{fill:none;stroke:url(#SVGID_38_);stroke-miterlimit:10;}
	.st40{fill:none;stroke:url(#SVGID_39_);stroke-miterlimit:10;}
</style>
<rect class="st0" width="1000" height="600"/>
<g>
	<polygon class="st1" points="500,21.7 518.6,59.3 560.1,65.3 530.1,94.6 537.2,136 500,116.5 462.8,136 469.9,94.6 439.9,65.3 
		481.4,59.3 	"/>
	<polygon class="st1" points="500,27.4 516.7,61.3 554.1,66.7 527.1,93.1 533.4,130.3 500,112.7 466.6,130.3 472.9,93.1 445.9,66.7 
		483.3,61.3 	"/>
	<polygon class="st1" points="500,32.5 515,63 548.7,67.9 524.3,91.6 530.1,125.1 500,109.3 469.9,125.1 475.7,91.6 451.3,67.9 
		485,63 	"/>
	<polygon class="st1" points="500,37.1 513.5,64.6 543.8,69 521.9,90.4 527.1,120.5 500,106.3 472.9,120.5 478.1,90.4 456.2,69 
		486.5,64.6 	"/>
	<polygon class="st1" points="500,41.3 512.2,66 539.4,70 519.7,89.2 524.4,116.3 500,103.5 475.6,116.3 480.3,89.2 460.6,70 
		487.8,66 	"/>
	<polygon class="st1" points="500,45.1 511,67.3 535.5,70.9 517.8,88.2 521.9,112.6 500,101.1 478.1,112.6 482.3,88.2 464.5,70.9 
		489,67.3 	"/>
	<polygon class="st1" points="500,48.4 509.9,68.4 531.9,71.7 516,87.2 519.7,109.2 500,98.8 480.3,109.2 484,87.2 468.1,71.7 
		490.1,68.4 	"/>
	<polygon class="st1" points="500,51.5 508.9,69.5 528.8,72.4 514.4,86.4 517.8,106.2 500,96.8 482.2,106.2 485.6,86.4 471.2,72.4 
		491.1,69.5 	"/>
	<polygon class="st1" points="500,54.2 508,70.4 525.9,73 512.9,85.6 516,103.4 500,95 484,103.4 487.1,85.6 474.1,73 492,70.4 	"/>
	<polygon class="st1" points="500,56.7 507.2,71.3 523.3,73.6 511.6,85 514.4,101 500,93.4 485.6,101 488.4,85 476.7,73.6 
		492.8,71.3 	"/>
	<polygon class="st1" points="500,58.9 506.5,72 521,74.1 510.5,84.3 513,98.8 500,92 487,98.8 489.5,84.3 479,74.1 493.5,72 	"/>
	<polygon class="st1" points="500,60.9 505.8,72.7 518.9,74.6 509.4,83.8 511.7,96.8 500,90.6 488.3,96.8 490.6,83.8 481.1,74.6 
		494.2,72.7 	"/>
	<polygon class="st1" points="500,62.7 505.2,73.3 517,75 508.5,83.3 510.5,95 500,89.5 489.5,95 491.5,83.3 483,75 494.8,73.3 	"/>
	<polygon class="st1" points="500,64.3 504.7,73.9 515.3,75.4 507.6,82.8 509.4,93.4 500,88.4 490.6,93.4 492.4,82.8 484.7,75.4 
		495.3,73.9 	"/>
	<polygon class="st1" points="500,65.8 504.3,74.4 513.8,75.7 506.9,82.4 508.5,91.9 500,87.4 491.5,91.9 493.1,82.4 486.2,75.7 
		495.7,74.4 	"/>
	<polygon class="st1" points="500,67.1 503.8,74.8 512.4,76.1 506.2,82.1 507.7,90.6 500,86.6 492.3,90.6 493.8,82.1 487.6,76.1 
		496.2,74.8 	"/>
	<polygon class="st1" points="500,68.2 503.4,75.2 511.1,76.3 505.6,81.8 506.9,89.4 500,85.8 493.1,89.4 494.4,81.8 488.9,76.3 
		496.6,75.2 	"/>
	<polygon class="st1" points="500,69.3 503.1,75.6 510,76.6 505,81.5 506.2,88.4 500,85.1 493.8,88.4 495,81.5 490,76.6 496.9,75.6 
			"/>
	<polygon class="st1" points="500,70.2 502.8,75.9 509,76.8 504.5,81.2 505.6,87.4 500,84.5 494.4,87.4 495.5,81.2 491,76.8 
		497.2,75.9 	"/>
	<polygon class="st1" points="500,71.1 502.5,76.2 508.1,77 504.1,81 505,86.6 500,83.9 495,86.6 495.9,81 491.9,77 497.5,76.2 	"/>
	<polygon class="st1" points="500,71.9 502.3,76.5 507.3,77.2 503.7,80.8 504.5,85.8 500,83.4 495.5,85.8 496.3,80.8 492.7,77.2 
		497.7,76.5 	"/>
	<polygon class="st1" points="500,72.6 502,76.7 506.6,77.4 503.3,80.6 504.1,85.1 500,82.9 495.9,85.1 496.7,80.6 493.4,77.4 
		498,76.7 	"/>
	<polygon class="st1" points="500,73.2 501.8,76.9 505.9,77.5 503,80.4 503.7,84.5 500,82.5 496.3,84.5 497,80.4 494.1,77.5 
		498.2,76.9 	"/>
	<polygon class="st1" points="500,73.8 501.6,77.1 505.3,77.6 502.7,80.2 503.3,83.9 500,82.2 496.7,83.9 497.3,80.2 494.7,77.6 
		498.4,77.1 	"/>
	<polygon class="st1" points="500,74.3 501.5,77.3 504.8,77.8 502.4,80.1 503,83.4 500,81.8 497,83.4 497.6,80.1 495.2,77.8 
		498.5,77.3 	"/>
	<polygon class="st1" points="500,74.7 501.3,77.4 504.3,77.9 502.2,80 502.7,82.9 500,81.5 497.3,82.9 497.8,80 495.7,77.9 
		498.7,77.4 	"/>
	<polygon class="st1" points="500,75.1 501.2,77.6 503.9,78 501.9,79.9 502.4,82.5 500,81.3 497.6,82.5 498.1,79.9 496.1,78 
		498.8,77.6 	"/>
	<polygon class="st1" points="500,75.5 501.1,77.7 503.5,78 501.7,79.7 502.2,82.2 500,81 497.8,82.2 498.3,79.7 496.5,78 
		498.9,77.7 	"/>
	<polygon class="st1" points="500,75.8 501,77.8 503.1,78.1 501.6,79.7 501.9,81.8 500,80.8 498.1,81.8 498.4,79.7 496.9,78.1 
		499,77.8 	"/>
	<polygon class="st1" points="500,76.1 500.9,77.9 502.8,78.2 501.4,79.6 501.8,81.5 500,80.6 498.2,81.5 498.6,79.6 497.2,78.2 
		499.1,77.9 	"/>
	<polygon class="st1" points="500,76.4 500.8,78 502.5,78.3 501.3,79.5 501.6,81.3 500,80.4 498.4,81.3 498.7,79.5 497.5,78.3 
		499.2,78 	"/>
	<polygon class="st1" points="500,76.6 500.7,78.1 502.3,78.3 501.1,79.4 501.4,81 500,80.3 498.6,81 498.9,79.4 497.7,78.3 
		499.3,78.1 	"/>
	<polygon class="st1" points="500,76.9 500.6,78.2 502.1,78.4 501,79.4 501.3,80.8 500,80.1 498.7,80.8 499,79.4 497.9,78.4 
		499.4,78.2 	"/>
	<polygon class="st1" points="500,77.1 500.6,78.2 501.9,78.4 500.9,79.3 501.1,80.6 500,80 498.9,80.6 499.1,79.3 498.1,78.4 
		499.4,78.2 	"/>
	<polygon class="st1" points="500,77.2 500.5,78.3 501.7,78.5 500.8,79.3 501,80.4 500,79.9 499,80.4 499.2,79.3 498.3,78.5 
		499.5,78.3 	"/>
	<polygon class="st1" points="500,77.4 500.5,78.3 501.5,78.5 500.8,79.2 500.9,80.3 500,79.8 499.1,80.3 499.2,79.2 498.5,78.5 
		499.5,78.3 	"/>
	<polygon class="st1" points="500,77.5 500.4,78.4 501.4,78.5 500.7,79.2 500.8,80.1 500,79.7 499.2,80.1 499.3,79.2 498.6,78.5 
		499.6,78.4 	"/>
	<polygon class="st1" points="500,77.7 500.4,78.4 501.2,78.6 500.6,79.2 500.8,80 500,79.6 499.2,80 499.4,79.2 498.8,78.6 
		499.6,78.4 	"/>
	<polygon class="st1" points="500,77.8 500.3,78.5 501.1,78.6 500.5,79.1 500.7,79.9 500,79.5 499.3,79.9 499.5,79.1 498.9,78.6 
		499.7,78.5 	"/>
	<polygon class="st1" points="500,77.9 500.3,78.5 501,78.6 500.5,79.1 500.6,79.8 500,79.4 499.4,79.8 499.5,79.1 499,78.6 
		499.7,78.5 	"/>
	<polygon class="st1" points="500,78 500.3,78.5 500.9,78.6 500.4,79.1 500.5,79.7 500,79.4 499.5,79.7 499.6,79.1 499.1,78.6 
		499.7,78.5 	"/>
	<polygon class="st1" points="500,78.1 500.2,78.6 500.8,78.7 500.4,79 500.5,79.6 500,79.3 499.5,79.6 499.6,79 499.2,78.7 
		499.8,78.6 	"/>
	<polygon class="st1" points="500,78.1 500.2,78.6 500.7,78.7 500.4,79 500.4,79.5 500,79.3 499.6,79.5 499.6,79 499.3,78.7 
		499.8,78.6 	"/>
	<polygon class="st1" points="500,78.2 500.2,78.6 500.6,78.7 500.3,79 500.4,79.4 500,79.2 499.6,79.4 499.7,79 499.4,78.7 
		499.8,78.6 	"/>
	<polygon class="st1" points="500,78.3 500.2,78.6 500.6,78.7 500.3,79 500.4,79.4 500,79.2 499.6,79.4 499.7,79 499.4,78.7 
		499.8,78.6 	"/>
	<polygon class="st1" points="500,78.3 500.2,78.7 500.5,78.7 500.3,79 500.3,79.3 500,79.2 499.7,79.3 499.7,79 499.5,78.7 
		499.8,78.7 	"/>
	<polygon class="st1" points="500,78.4 500.1,78.7 500.5,78.7 500.2,79 500.3,79.3 500,79.1 499.7,79.3 499.8,79 499.5,78.7 
		499.9,78.7 	"/>
</g>
<g>
	<linearGradient id="SVGID_1_" gradientUnits="userSpaceOnUse" x1="500" y1="119.7062" x2="500" y2="600.5">
		<stop  offset="0" style="stop-color:#55B0FF"/>
		<stop  offset="0.1113" style="stop-color:#5DA7FE"/>
		<stop  offset="0.2965" style="stop-color:#728DFB"/>
		<stop  offset="0.5327" style="stop-color:#9564F5"/>
		<stop  offset="0.8077" style="stop-color:#C42BEE"/>
		<stop  offset="0.9944" style="stop-color:#E800E9"/>
		<stop  offset="1" style="stop-color:#E5C500"/>
		<stop  offset="1" style="stop-color:#E59E03"/>
	</linearGradient>
	<polygon class="st2" points="500,120.4 0,600 1000,600 	"/>
	<linearGradient id="SVGID_2_" gradientUnits="userSpaceOnUse" x1="500" y1="143.7185" x2="500" y2="576.52">
		<stop  offset="0" style="stop-color:#55B0FF"/>
		<stop  offset="0.1113" style="stop-color:#5DA7FE"/>
		<stop  offset="0.2965" style="stop-color:#728DFB"/>
		<stop  offset="0.5327" style="stop-color:#9564F5"/>
		<stop  offset="0.8077" style="stop-color:#C42BEE"/>
		<stop  offset="0.9944" style="stop-color:#E800E9"/>
		<stop  offset="1" style="stop-color:#E5C500"/>
		<stop  offset="1" style="stop-color:#E59E03"/>
	</linearGradient>
	<polygon class="st3" points="500,144.4 0,576 1000,576 	"/>
	<linearGradient id="SVGID_3_" gradientUnits="userSpaceOnUse" x1="500" y1="165.3279" x2="500" y2="554.9379">
		<stop  offset="0" style="stop-color:#55B0FF"/>
		<stop  offset="0.1113" style="stop-color:#5DA7FE"/>
		<stop  offset="0.2965" style="stop-color:#728DFB"/>
		<stop  offset="0.5327" style="stop-color:#9564F5"/>
		<stop  offset="0.8077" style="stop-color:#C42BEE"/>
		<stop  offset="0.9944" style="stop-color:#E800E9"/>
		<stop  offset="1" style="stop-color:#E5C500"/>
		<stop  offset="1" style="stop-color:#E59E03"/>
	</linearGradient>
	<polygon class="st4" points="500,166 0,554.4 1000,554.4 	"/>
	<linearGradient id="SVGID_4_" gradientUnits="userSpaceOnUse" x1="500" y1="184.7748" x2="500" y2="535.514">
		<stop  offset="0" style="stop-color:#55B0FF"/>
		<stop  offset="0.1113" style="stop-color:#5DA7FE"/>
		<stop  offset="0.2965" style="stop-color:#728DFB"/>
		<stop  offset="0.5327" style="stop-color:#9564F5"/>
		<stop  offset="0.8077" style="stop-color:#C42BEE"/>
		<stop  offset="0.9944" style="stop-color:#E800E9"/>
		<stop  offset="1" style="stop-color:#E5C500"/>
		<stop  offset="1" style="stop-color:#E59E03"/>
	</linearGradient>
	<polygon class="st5" points="500,185.4 0,535 1000,535 	"/>
	<linearGradient id="SVGID_5_" gradientUnits="userSpaceOnUse" x1="500" y1="202.2756" x2="500" y2="518.0326">
		<stop  offset="0" style="stop-color:#55B0FF"/>
		<stop  offset="0.1113" style="stop-color:#5DA7FE"/>
		<stop  offset="0.2965" style="stop-color:#728DFB"/>
		<stop  offset="0.5327" style="stop-color:#9564F5"/>
		<stop  offset="0.8077" style="stop-color:#C42BEE"/>
		<stop  offset="0.9944" style="stop-color:#E800E9"/>
		<stop  offset="1" style="stop-color:#E5C500"/>
		<stop  offset="1" style="stop-color:#E59E03"/>
	</linearGradient>
	<polygon class="st6" points="500,202.9 0,517.5 1000,517.5 	"/>
	<linearGradient id="SVGID_6_" gradientUnits="userSpaceOnUse" x1="500" y1="218.0251" x2="500" y2="502.2993">
		<stop  offset="0" style="stop-color:#55B0FF"/>
		<stop  offset="0.1113" style="stop-color:#5DA7FE"/>
		<stop  offset="0.2965" style="stop-color:#728DFB"/>
		<stop  offset="0.5327" style="stop-color:#9564F5"/>
		<stop  offset="0.8077" style="stop-color:#C42BEE"/>
		<stop  offset="0.9944" style="stop-color:#E800E9"/>
		<stop  offset="1" style="stop-color:#E5C500"/>
		<stop  offset="1" style="stop-color:#E59E03"/>
	</linearGradient>
	<polygon class="st7" points="500,218.6 0,501.8 1000,501.8 	"/>
	<linearGradient id="SVGID_7_" gradientUnits="userSpaceOnUse" x1="500" y1="232.1985" x2="500" y2="488.1393">
		<stop  offset="0" style="stop-color:#55B0FF"/>
		<stop  offset="0.1113" style="stop-color:#5DA7FE"/>
		<stop  offset="0.2965" style="stop-color:#728DFB"/>
		<stop  offset="0.5327" style="stop-color:#9564F5"/>
		<stop  offset="0.8077" style="stop-color:#C42BEE"/>
		<stop  offset="0.9944" style="stop-color:#E800E9"/>
		<stop  offset="1" style="stop-color:#E5C500"/>
		<stop  offset="1" style="stop-color:#E59E03"/>
	</linearGradient>
	<polygon class="st8" points="500,232.8 0,487.6 1000,487.6 	"/>
	<linearGradient id="SVGID_8_" gradientUnits="userSpaceOnUse" x1="500" y1="244.9536" x2="500" y2="475.3954">
		<stop  offset="0" style="stop-color:#55B0FF"/>
		<stop  offset="0.1113" style="stop-color:#5DA7FE"/>
		<stop  offset="0.2965" style="stop-color:#728DFB"/>
		<stop  offset="0.5327" style="stop-color:#9564F5"/>
		<stop  offset="0.8077" style="stop-color:#C42BEE"/>
		<stop  offset="0.9944" style="stop-color:#E800E9"/>
		<stop  offset="1" style="stop-color:#E5C500"/>
		<stop  offset="1" style="stop-color:#E59E03"/>
	</linearGradient>
	<polygon class="st9" points="500,245.5 0,474.9 1000,474.9 	"/>
	<linearGradient id="SVGID_9_" gradientUnits="userSpaceOnUse" x1="500" y1="256.4323" x2="500" y2="463.9258">
		<stop  offset="0" style="stop-color:#55B0FF"/>
		<stop  offset="0.1113" style="stop-color:#5DA7FE"/>
		<stop  offset="0.2965" style="stop-color:#728DFB"/>
		<stop  offset="0.5327" style="stop-color:#9564F5"/>
		<stop  offset="0.8077" style="stop-color:#C42BEE"/>
		<stop  offset="0.9944" style="stop-color:#E800E9"/>
		<stop  offset="1" style="stop-color:#E5C500"/>
		<stop  offset="1" style="stop-color:#E59E03"/>
	</linearGradient>
	<polygon class="st10" points="500,257 0,463.4 1000,463.4 	"/>
	<linearGradient id="SVGID_10_" gradientUnits="userSpaceOnUse" x1="500" y1="266.7625" x2="500" y2="453.6031">
		<stop  offset="0" style="stop-color:#55B0FF"/>
		<stop  offset="0.1113" style="stop-color:#5DA7FE"/>
		<stop  offset="0.2965" style="stop-color:#728DFB"/>
		<stop  offset="0.5327" style="stop-color:#9564F5"/>
		<stop  offset="0.8077" style="stop-color:#C42BEE"/>
		<stop  offset="0.9944" style="stop-color:#E800E9"/>
		<stop  offset="1" style="stop-color:#E5C500"/>
		<stop  offset="1" style="stop-color:#E59E03"/>
	</linearGradient>
	<polygon class="st11" points="500,267.3 0,453.1 1000,453.1 	"/>
	<linearGradient id="SVGID_11_" gradientUnits="userSpaceOnUse" x1="500" y1="276.059" x2="500" y2="444.3128">
		<stop  offset="0" style="stop-color:#55B0FF"/>
		<stop  offset="0.1113" style="stop-color:#5DA7FE"/>
		<stop  offset="0.2965" style="stop-color:#728DFB"/>
		<stop  offset="0.5327" style="stop-color:#9564F5"/>
		<stop  offset="0.8077" style="stop-color:#C42BEE"/>
		<stop  offset="0.9944" style="stop-color:#E800E9"/>
		<stop  offset="1" style="stop-color:#E5C500"/>
		<stop  offset="1" style="stop-color:#E59E03"/>
	</linearGradient>
	<polygon class="st12" points="500,276.6 0,443.8 1000,443.8 	"/>
	<linearGradient id="SVGID_12_" gradientUnits="userSpaceOnUse" x1="500" y1="119.6683" x2="500" y2="600.5">
		<stop  offset="0" style="stop-color:#55B0FF"/>
		<stop  offset="0.1113" style="stop-color:#5DA7FE"/>
		<stop  offset="0.2965" style="stop-color:#728DFB"/>
		<stop  offset="0.5327" style="stop-color:#9564F5"/>
		<stop  offset="0.8077" style="stop-color:#C42BEE"/>
		<stop  offset="0.9944" style="stop-color:#E800E9"/>
		<stop  offset="1" style="stop-color:#E5C500"/>
		<stop  offset="1" style="stop-color:#E59E03"/>
	</linearGradient>
	<polygon class="st13" points="500,120.4 50,600 950,600 	"/>
	<linearGradient id="SVGID_13_" gradientUnits="userSpaceOnUse" x1="500" y1="119.624" x2="500" y2="600.5">
		<stop  offset="0" style="stop-color:#55B0FF"/>
		<stop  offset="0.1113" style="stop-color:#5DA7FE"/>
		<stop  offset="0.2965" style="stop-color:#728DFB"/>
		<stop  offset="0.5327" style="stop-color:#9564F5"/>
		<stop  offset="0.8077" style="stop-color:#C42BEE"/>
		<stop  offset="0.9944" style="stop-color:#E800E9"/>
		<stop  offset="1" style="stop-color:#E5C500"/>
		<stop  offset="1" style="stop-color:#E59E03"/>
	</linearGradient>
	<polygon class="st14" points="500,120.4 95,600 905,600 	"/>
	<linearGradient id="SVGID_14_" gradientUnits="userSpaceOnUse" x1="500" y1="119.5727" x2="500" y2="600.5">
		<stop  offset="0" style="stop-color:#55B0FF"/>
		<stop  offset="0.1113" style="stop-color:#5DA7FE"/>
		<stop  offset="0.2965" style="stop-color:#728DFB"/>
		<stop  offset="0.5327" style="stop-color:#9564F5"/>
		<stop  offset="0.8077" style="stop-color:#C42BEE"/>
		<stop  offset="0.9944" style="stop-color:#E800E9"/>
		<stop  offset="1" style="stop-color:#E5C500"/>
		<stop  offset="1" style="stop-color:#E59E03"/>
	</linearGradient>
	<polygon class="st15" points="500,120.4 135.5,600 864.5,600 	"/>
	<linearGradient id="SVGID_15_" gradientUnits="userSpaceOnUse" x1="500" y1="119.5134" x2="500" y2="600.5">
		<stop  offset="0" style="stop-color:#55B0FF"/>
		<stop  offset="0.1113" style="stop-color:#5DA7FE"/>
		<stop  offset="0.2965" style="stop-color:#728DFB"/>
		<stop  offset="0.5327" style="stop-color:#9564F5"/>
		<stop  offset="0.8077" style="stop-color:#C42BEE"/>
		<stop  offset="0.9944" style="stop-color:#E800E9"/>
		<stop  offset="1" style="stop-color:#E5C500"/>
		<stop  offset="1" style="stop-color:#E59E03"/>
	</linearGradient>
	<polygon class="st16" points="500,120.4 171.9,600 828,600 	"/>
	<linearGradient id="SVGID_16_" gradientUnits="userSpaceOnUse" x1="500" y1="119.4453" x2="500" y2="600.5">
		<stop  offset="0" style="stop-color:#55B0FF"/>
		<stop  offset="0.1113" style="stop-color:#5DA7FE"/>
		<stop  offset="0.2965" style="stop-color:#728DFB"/>
		<stop  offset="0.5327" style="stop-color:#9564F5"/>
		<stop  offset="0.8077" style="stop-color:#C42BEE"/>
		<stop  offset="0.9944" style="stop-color:#E800E9"/>
		<stop  offset="1" style="stop-color:#E5C500"/>
		<stop  offset="1" style="stop-color:#E59E03"/>
	</linearGradient>
	<polygon class="st17" points="500,120.4 204.8,600 795.2,600 	"/>
	<linearGradient id="SVGID_17_" gradientUnits="userSpaceOnUse" x1="500" y1="119.3673" x2="500" y2="600.5">
		<stop  offset="0" style="stop-color:#55B0FF"/>
		<stop  offset="0.1113" style="stop-color:#5DA7FE"/>
		<stop  offset="0.2965" style="stop-color:#728DFB"/>
		<stop  offset="0.5327" style="stop-color:#9564F5"/>
		<stop  offset="0.8077" style="stop-color:#C42BEE"/>
		<stop  offset="0.9944" style="stop-color:#E800E9"/>
		<stop  offset="1" style="stop-color:#E5C500"/>
		<stop  offset="1" style="stop-color:#E59E03"/>
	</linearGradient>
	<polygon class="st18" points="500,120.4 234.3,600 765.7,600 	"/>
	<linearGradient id="SVGID_18_" gradientUnits="userSpaceOnUse" x1="500" y1="119.2785" x2="500" y2="600.5">
		<stop  offset="0" style="stop-color:#55B0FF"/>
		<stop  offset="0.1113" style="stop-color:#5DA7FE"/>
		<stop  offset="0.2965" style="stop-color:#728DFB"/>
		<stop  offset="0.5327" style="stop-color:#9564F5"/>
		<stop  offset="0.8077" style="stop-color:#C42BEE"/>
		<stop  offset="0.9944" style="stop-color:#E800E9"/>
		<stop  offset="1" style="stop-color:#E5C500"/>
		<stop  offset="1" style="stop-color:#E59E03"/>
	</linearGradient>
	<polygon class="st19" points="500,120.4 260.9,600 739.1,600 	"/>
	<linearGradient id="SVGID_19_" gradientUnits="userSpaceOnUse" x1="500" y1="119.1778" x2="500" y2="600.5">
		<stop  offset="0" style="stop-color:#55B0FF"/>
		<stop  offset="0.1113" style="stop-color:#5DA7FE"/>
		<stop  offset="0.2965" style="stop-color:#728DFB"/>
		<stop  offset="0.5327" style="stop-color:#9564F5"/>
		<stop  offset="0.8077" style="stop-color:#C42BEE"/>
		<stop  offset="0.9944" style="stop-color:#E800E9"/>
		<stop  offset="1" style="stop-color:#E5C500"/>
		<stop  offset="1" style="stop-color:#E59E03"/>
	</linearGradient>
	<polygon class="st20" points="500,120.4 284.8,600 715.2,600 	"/>
	<linearGradient id="SVGID_20_" gradientUnits="userSpaceOnUse" x1="500" y1="119.0639" x2="500" y2="600.5">
		<stop  offset="0" style="stop-color:#55B0FF"/>
		<stop  offset="0.1113" style="stop-color:#5DA7FE"/>
		<stop  offset="0.2965" style="stop-color:#728DFB"/>
		<stop  offset="0.5327" style="stop-color:#9564F5"/>
		<stop  offset="0.8077" style="stop-color:#C42BEE"/>
		<stop  offset="0.9944" style="stop-color:#E800E9"/>
		<stop  offset="1" style="stop-color:#E5C500"/>
		<stop  offset="1" style="stop-color:#E59E03"/>
	</linearGradient>
	<polygon class="st21" points="500,120.4 306.3,600 693.7,600 	"/>
	<linearGradient id="SVGID_21_" gradientUnits="userSpaceOnUse" x1="500" y1="118.9355" x2="500" y2="600.5">
		<stop  offset="0" style="stop-color:#55B0FF"/>
		<stop  offset="0.1113" style="stop-color:#5DA7FE"/>
		<stop  offset="0.2965" style="stop-color:#728DFB"/>
		<stop  offset="0.5327" style="stop-color:#9564F5"/>
		<stop  offset="0.8077" style="stop-color:#C42BEE"/>
		<stop  offset="0.9944" style="stop-color:#E800E9"/>
		<stop  offset="1" style="stop-color:#E5C500"/>
		<stop  offset="1" style="stop-color:#E59E03"/>
	</linearGradient>
	<polygon class="st22" points="500,120.4 325.7,600 674.3,600 	"/>
	<linearGradient id="SVGID_22_" gradientUnits="userSpaceOnUse" x1="500" y1="118.791" x2="500" y2="600.5">
		<stop  offset="0" style="stop-color:#55B0FF"/>
		<stop  offset="0.1113" style="stop-color:#5DA7FE"/>
		<stop  offset="0.2965" style="stop-color:#728DFB"/>
		<stop  offset="0.5327" style="stop-color:#9564F5"/>
		<stop  offset="0.8077" style="stop-color:#C42BEE"/>
		<stop  offset="0.9944" style="stop-color:#E800E9"/>
		<stop  offset="1" style="stop-color:#E5C500"/>
		<stop  offset="1" style="stop-color:#E59E03"/>
	</linearGradient>
	<polygon class="st23" points="500,120.4 343.1,600 656.9,600 	"/>
	<linearGradient id="SVGID_23_" gradientUnits="userSpaceOnUse" x1="500" y1="118.7144" x2="500" y2="600.5">
		<stop  offset="0" style="stop-color:#55B0FF"/>
		<stop  offset="0.1113" style="stop-color:#5DA7FE"/>
		<stop  offset="0.2965" style="stop-color:#728DFB"/>
		<stop  offset="0.5327" style="stop-color:#9564F5"/>
		<stop  offset="0.8077" style="stop-color:#C42BEE"/>
		<stop  offset="0.9944" style="stop-color:#E800E9"/>
		<stop  offset="1" style="stop-color:#E5C500"/>
		<stop  offset="1" style="stop-color:#E59E03"/>
	</linearGradient>
	<polygon class="st24" points="500,120.4 350.9,600 649.1,600 	"/>
	<linearGradient id="SVGID_24_" gradientUnits="userSpaceOnUse" x1="500" y1="118.6333" x2="500" y2="600.5">
		<stop  offset="0" style="stop-color:#55B0FF"/>
		<stop  offset="0.1113" style="stop-color:#5DA7FE"/>
		<stop  offset="0.2965" style="stop-color:#728DFB"/>
		<stop  offset="0.5327" style="stop-color:#9564F5"/>
		<stop  offset="0.8077" style="stop-color:#C42BEE"/>
		<stop  offset="0.9944" style="stop-color:#E800E9"/>
		<stop  offset="1" style="stop-color:#E5C500"/>
		<stop  offset="1" style="stop-color:#E59E03"/>
	</linearGradient>
	<polygon class="st25" points="500,120.4 358.4,600 641.6,600 	"/>
	<linearGradient id="SVGID_25_" gradientUnits="userSpaceOnUse" x1="500" y1="118.5477" x2="500" y2="600.5">
		<stop  offset="0" style="stop-color:#55B0FF"/>
		<stop  offset="0.1113" style="stop-color:#5DA7FE"/>
		<stop  offset="0.2965" style="stop-color:#728DFB"/>
		<stop  offset="0.5327" style="stop-color:#9564F5"/>
		<stop  offset="0.8077" style="stop-color:#C42BEE"/>
		<stop  offset="0.9944" style="stop-color:#E800E9"/>
		<stop  offset="1" style="stop-color:#E5C500"/>
		<stop  offset="1" style="stop-color:#E59E03"/>
	</linearGradient>
	<polygon class="st26" points="500,120.4 365.5,600 634.5,600 	"/>
	<linearGradient id="SVGID_26_" gradientUnits="userSpaceOnUse" x1="500" y1="118.4572" x2="500" y2="600.5">
		<stop  offset="0" style="stop-color:#55B0FF"/>
		<stop  offset="0.1113" style="stop-color:#5DA7FE"/>
		<stop  offset="0.2965" style="stop-color:#728DFB"/>
		<stop  offset="0.5327" style="stop-color:#9564F5"/>
		<stop  offset="0.8077" style="stop-color:#C42BEE"/>
		<stop  offset="0.9944" style="stop-color:#E800E9"/>
		<stop  offset="1" style="stop-color:#E5C500"/>
		<stop  offset="1" style="stop-color:#E59E03"/>
	</linearGradient>
	<polygon class="st27" points="500,120.4 372.2,600 627.8,600 	"/>
	<linearGradient id="SVGID_27_" gradientUnits="userSpaceOnUse" x1="500" y1="118.3616" x2="500" y2="600.5">
		<stop  offset="0" style="stop-color:#55B0FF"/>
		<stop  offset="0.1113" style="stop-color:#5DA7FE"/>
		<stop  offset="0.2965" style="stop-color:#728DFB"/>
		<stop  offset="0.5327" style="stop-color:#9564F5"/>
		<stop  offset="0.8077" style="stop-color:#C42BEE"/>
		<stop  offset="0.9944" style="stop-color:#E800E9"/>
		<stop  offset="1" style="stop-color:#E5C500"/>
		<stop  offset="1" style="stop-color:#E59E03"/>
	</linearGradient>
	<polygon class="st28" points="500,120.4 378.6,600 621.4,600 	"/>
	<linearGradient id="SVGID_28_" gradientUnits="userSpaceOnUse" x1="500" y1="118.2607" x2="500" y2="600.5">
		<stop  offset="0" style="stop-color:#55B0FF"/>
		<stop  offset="0.1113" style="stop-color:#5DA7FE"/>
		<stop  offset="0.2965" style="stop-color:#728DFB"/>
		<stop  offset="0.5327" style="stop-color:#9564F5"/>
		<stop  offset="0.8077" style="stop-color:#C42BEE"/>
		<stop  offset="0.9944" style="stop-color:#E800E9"/>
		<stop  offset="1" style="stop-color:#E5C500"/>
		<stop  offset="1" style="stop-color:#E59E03"/>
	</linearGradient>
	<polygon class="st29" points="500,120.4 384.7,600 615.3,600 	"/>
	<linearGradient id="SVGID_29_" gradientUnits="userSpaceOnUse" x1="500" y1="118.1541" x2="500" y2="600.5">
		<stop  offset="0" style="stop-color:#55B0FF"/>
		<stop  offset="0.1113" style="stop-color:#5DA7FE"/>
		<stop  offset="0.2965" style="stop-color:#728DFB"/>
		<stop  offset="0.5327" style="stop-color:#9564F5"/>
		<stop  offset="0.8077" style="stop-color:#C42BEE"/>
		<stop  offset="0.9944" style="stop-color:#E800E9"/>
		<stop  offset="1" style="stop-color:#E5C500"/>
		<stop  offset="1" style="stop-color:#E59E03"/>
	</linearGradient>
	<polygon class="st30" points="500,120.4 390.4,600 609.6,600 	"/>
	<linearGradient id="SVGID_30_" gradientUnits="userSpaceOnUse" x1="500" y1="118.0417" x2="500" y2="600.5">
		<stop  offset="0" style="stop-color:#55B0FF"/>
		<stop  offset="0.1113" style="stop-color:#5DA7FE"/>
		<stop  offset="0.2965" style="stop-color:#728DFB"/>
		<stop  offset="0.5327" style="stop-color:#9564F5"/>
		<stop  offset="0.8077" style="stop-color:#C42BEE"/>
		<stop  offset="0.9944" style="stop-color:#E800E9"/>
		<stop  offset="1" style="stop-color:#E5C500"/>
		<stop  offset="1" style="stop-color:#E59E03"/>
	</linearGradient>
	<polygon class="st31" points="500,120.4 395.9,600 604.1,600 	"/>
	<linearGradient id="SVGID_31_" gradientUnits="userSpaceOnUse" x1="500" y1="117.9231" x2="500" y2="600.5">
		<stop  offset="0" style="stop-color:#55B0FF"/>
		<stop  offset="0.1113" style="stop-color:#5DA7FE"/>
		<stop  offset="0.2965" style="stop-color:#728DFB"/>
		<stop  offset="0.5327" style="stop-color:#9564F5"/>
		<stop  offset="0.8077" style="stop-color:#C42BEE"/>
		<stop  offset="0.9944" style="stop-color:#E800E9"/>
		<stop  offset="1" style="stop-color:#E5C500"/>
		<stop  offset="1" style="stop-color:#E59E03"/>
	</linearGradient>
	<polygon class="st32" points="500,120.4 401.1,600 598.9,600 	"/>
	<linearGradient id="SVGID_32_" gradientUnits="userSpaceOnUse" x1="500" y1="117.798" x2="500" y2="600.5">
		<stop  offset="0" style="stop-color:#55B0FF"/>
		<stop  offset="0.1113" style="stop-color:#5DA7FE"/>
		<stop  offset="0.2965" style="stop-color:#728DFB"/>
		<stop  offset="0.5327" style="stop-color:#9564F5"/>
		<stop  offset="0.8077" style="stop-color:#C42BEE"/>
		<stop  offset="0.9944" style="stop-color:#E800E9"/>
		<stop  offset="1" style="stop-color:#E5C500"/>
		<stop  offset="1" style="stop-color:#E59E03"/>
	</linearGradient>
	<polygon class="st33" points="500,120.4 406.1,600 593.9,600 	"/>
	<linearGradient id="SVGID_33_" gradientUnits="userSpaceOnUse" x1="500" y1="117.666" x2="500" y2="600.5">
		<stop  offset="0" style="stop-color:#55B0FF"/>
		<stop  offset="0.1113" style="stop-color:#5DA7FE"/>
		<stop  offset="0.2965" style="stop-color:#728DFB"/>
		<stop  offset="0.5327" style="stop-color:#9564F5"/>
		<stop  offset="0.8077" style="stop-color:#C42BEE"/>
		<stop  offset="0.9944" style="stop-color:#E800E9"/>
		<stop  offset="1" style="stop-color:#E5C500"/>
		<stop  offset="1" style="stop-color:#E59E03"/>
	</linearGradient>
	<polygon class="st34" points="500,120.4 410.8,600 589.2,600 	"/>
	<linearGradient id="SVGID_34_" gradientUnits="userSpaceOnUse" x1="500" y1="117.5268" x2="500" y2="600.5">
		<stop  offset="0" style="stop-color:#55B0FF"/>
		<stop  offset="0.1113" style="stop-color:#5DA7FE"/>
		<stop  offset="0.2965" style="stop-color:#728DFB"/>
		<stop  offset="0.5327" style="stop-color:#9564F5"/>
		<stop  offset="0.8077" style="stop-color:#C42BEE"/>
		<stop  offset="0.9944" style="stop-color:#E800E9"/>
		<stop  offset="1" style="stop-color:#E5C500"/>
		<stop  offset="1" style="stop-color:#E59E03"/>
	</linearGradient>
	<polygon class="st35" points="500,120.4 415.2,600 584.8,600 	"/>
	<linearGradient id="SVGID_35_" gradientUnits="userSpaceOnUse" x1="500" y1="117.3801" x2="500" y2="600.5">
		<stop  offset="0" style="stop-color:#55B0FF"/>
		<stop  offset="0.1113" style="stop-color:#5DA7FE"/>
		<stop  offset="0.2965" style="stop-color:#728DFB"/>
		<stop  offset="0.5327" style="stop-color:#9564F5"/>
		<stop  offset="0.8077" style="stop-color:#C42BEE"/>
		<stop  offset="0.9944" style="stop-color:#E800E9"/>
		<stop  offset="1" style="stop-color:#E5C500"/>
		<stop  offset="1" style="stop-color:#E59E03"/>
	</linearGradient>
	<polygon class="st36" points="500,120.4 419.5,600 580.5,600 	"/>
	<linearGradient id="SVGID_36_" gradientUnits="userSpaceOnUse" x1="500" y1="117.2255" x2="500" y2="600.5">
		<stop  offset="0" style="stop-color:#55B0FF"/>
		<stop  offset="0.1113" style="stop-color:#5DA7FE"/>
		<stop  offset="0.2965" style="stop-color:#728DFB"/>
		<stop  offset="0.5327" style="stop-color:#9564F5"/>
		<stop  offset="0.8077" style="stop-color:#C42BEE"/>
		<stop  offset="0.9944" style="stop-color:#E800E9"/>
		<stop  offset="1" style="stop-color:#E5C500"/>
		<stop  offset="1" style="stop-color:#E59E03"/>
	</linearGradient>
	<polygon class="st37" points="500,120.4 423.5,600 576.5,600 	"/>
	<linearGradient id="SVGID_37_" gradientUnits="userSpaceOnUse" x1="500" y1="117.0625" x2="500" y2="600.5">
		<stop  offset="0" style="stop-color:#55B0FF"/>
		<stop  offset="0.1113" style="stop-color:#5DA7FE"/>
		<stop  offset="0.2965" style="stop-color:#728DFB"/>
		<stop  offset="0.5327" style="stop-color:#9564F5"/>
		<stop  offset="0.8077" style="stop-color:#C42BEE"/>
		<stop  offset="0.9944" style="stop-color:#E800E9"/>
		<stop  offset="1" style="stop-color:#E5C500"/>
		<stop  offset="1" style="stop-color:#E59E03"/>
	</linearGradient>
	<polygon class="st38" points="500,120.4 427.3,600 572.7,600 	"/>
	<linearGradient id="SVGID_38_" gradientUnits="userSpaceOnUse" x1="500" y1="116.8908" x2="500" y2="600.5">
		<stop  offset="0" style="stop-color:#55B0FF"/>
		<stop  offset="0.1113" style="stop-color:#5DA7FE"/>
		<stop  offset="0.2965" style="stop-color:#728DFB"/>
		<stop  offset="0.5327" style="stop-color:#9564F5"/>
		<stop  offset="0.8077" style="stop-color:#C42BEE"/>
		<stop  offset="0.9944" style="stop-color:#E800E9"/>
		<stop  offset="1" style="stop-color:#E5C500"/>
		<stop  offset="1" style="stop-color:#E59E03"/>
	</linearGradient>
	<polygon class="st39" points="500,120.4 430.9,600 569.1,600 	"/>
	<linearGradient id="SVGID_39_" gradientUnits="userSpaceOnUse" x1="500" y1="116.7098" x2="500" y2="600.5">
		<stop  offset="0" style="stop-color:#55B0FF"/>
		<stop  offset="0.1113" style="stop-color:#5DA7FE"/>
		<stop  offset="0.2965" style="stop-color:#728DFB"/>
		<stop  offset="0.5327" style="stop-color:#9564F5"/>
		<stop  offset="0.8077" style="stop-color:#C42BEE"/>
		<stop  offset="0.9944" style="stop-color:#E800E9"/>
		<stop  offset="1" style="stop-color:#E5C500"/>
		<stop  offset="1" style="stop-color:#E59E03"/>
	</linearGradient>
	<polygon class="st40" points="500,120.4 434.4,600 565.6,600 	"/>
</g>
</svg>
