<?xml version="1.0" encoding="utf-8"?>
<!-- Generator: Adobe Illustrator 21.1.0, SVG Export Plug-In . SVG Version: 6.00 Build 0)  -->
<svg version="1.1" id="图层_1" xmlns="http://www.w3.org/2000/svg" xmlns:xlink="http://www.w3.org/1999/xlink" x="0px" y="0px"
	 viewBox="0 0 600 400" style="enable-background:new 0 0 600 400;" xml:space="preserve">
<style type="text/css">
	.st0{fill:#4C487C;}
	.st1{fill:none;stroke:#558EFF;stroke-miterlimit:10;}
	.st2{fill:none;stroke:#5390FE;stroke-miterlimit:10;}
	.st3{fill:none;stroke:#5093FD;stroke-miterlimit:10;}
	.st4{fill:none;stroke:#4E95FC;stroke-miterlimit:10;}
	.st5{fill:none;stroke:#4B98FA;stroke-miterlimit:10;}
	.st6{fill:none;stroke:#499AF9;stroke-miterlimit:10;}
	.st7{fill:none;stroke:#469DF8;stroke-miterlimit:10;}
	.st8{fill:none;stroke:#449FF7;stroke-miterlimit:10;}
	.st9{fill:none;stroke:#41A2F6;stroke-miterlimit:10;}
	.st10{fill:none;stroke:#3FA4F5;stroke-miterlimit:10;}
	.st11{fill:none;stroke:#3CA7F3;stroke-miterlimit:10;}
	.st12{fill:none;stroke:#3AA9F2;stroke-miterlimit:10;}
	.st13{fill:none;stroke:#38ACF1;stroke-miterlimit:10;}
	.st14{fill:none;stroke:#35AEF0;stroke-miterlimit:10;}
	.st15{fill:none;stroke:#33B1EF;stroke-miterlimit:10;}
	.st16{fill:none;stroke:#30B3EE;stroke-miterlimit:10;}
	.st17{fill:none;stroke:#2EB6EC;stroke-miterlimit:10;}
	.st18{fill:none;stroke:#2BB8EB;stroke-miterlimit:10;}
	.st19{fill:none;stroke:#29BBEA;stroke-miterlimit:10;}
	.st20{fill:none;stroke:#26BDE9;stroke-miterlimit:10;}
	.st21{fill:none;stroke:#24C0E8;stroke-miterlimit:10;}
	.st22{fill:none;stroke:#22C2E7;stroke-miterlimit:10;}
	.st23{fill:none;stroke:#1FC5E5;stroke-miterlimit:10;}
	.st24{fill:none;stroke:#1DC7E4;stroke-miterlimit:10;}
	.st25{fill:none;stroke:#1ACAE3;stroke-miterlimit:10;}
	.st26{fill:none;stroke:#18CCE2;stroke-miterlimit:10;}
	.st27{fill:none;stroke:#15CFE1;stroke-miterlimit:10;}
	.st28{fill:none;stroke:#13D1E0;stroke-miterlimit:10;}
	.st29{fill:none;stroke:#10D4DE;stroke-miterlimit:10;}
	.st30{fill:none;stroke:#0ED6DD;stroke-miterlimit:10;}
	.st31{fill:none;stroke:#0BD9DC;stroke-miterlimit:10;}
	.st32{fill:none;stroke:#09DBDB;stroke-miterlimit:10;}
</style>
<rect class="st0" width="600" height="400"/>
<g>
	<path class="st1" d="M29,348.3c0,0,72.7-282,145.3-267.3c91.2,18.4-37.3,270.7,32,285.3C275.7,381,324.1,40.1,399,28.3
		c84.7-13.3,101.6,88.2,106,98.7c5,11.9,50,244.7,78.7,235.3"/>
	<path class="st2" d="M32.9,343c0,0,72.3-274.3,143.6-260.2c4,0.8,7.6,2.1,10.8,3.7c67.7,35.7-44,260.9,21,275.3
		C276,376.6,324.1,45.2,398,33.4c82.4-13,98.9,85.3,104,95.3c6.2,12.2,52.1,243.8,80.3,233.4"/>
	<path class="st3" d="M36.8,337.8c0,0,72-266.6,141.9-253c3.9,0.8,7.4,2,10.6,3.6c66.4,34.6-42.7,254.5,21,269
		c66,15,113.8-307.2,186.8-319c80.1-13,96.3,82.5,102.1,92c7.6,12.5,54.3,242.9,82,231.4"/>
	<path class="st4" d="M40.7,332.5c0,0,71.6-259,140.2-245.9c3.8,0.7,7.3,1.9,10.3,3.5c65.1,33.5-41.5,248.1,21,262.8
		C276.5,368.1,323.9,55.3,396,43.4c77.8-12.8,93.7,79.6,100.1,88.7c9,12.9,56.4,242,83.6,229.5"/>
	<path class="st5" d="M44.6,327.2c0,0,71.3-251.3,138.5-238.7c3.7,0.7,7.1,1.8,10.1,3.4c63.8,32.4-40.2,241.6,20.9,256.6
		c62.7,15.4,109.7-288.1,180.9-300c75.5-12.6,91.2,76.7,98.2,85.4c10.5,13.3,58.5,241.2,85.3,227.5"/>
	<path class="st6" d="M48.5,321.9c0,0,70.9-243.6,136.8-231.5c3.7,0.7,6.9,1.8,9.9,3.3c62.5,31.3-39,235.1,20.9,250.4
		c61.1,15.5,107.7-278.6,178-290.5c73.2-12.5,88.8,73.7,96.2,82.1c12.1,13.7,60.6,240.3,86.9,225.5"/>
	<path class="st7" d="M52.4,316.6c0,0,70.6-236.1,135-224.4c3.6,0.6,6.8,1.7,9.6,3.1c61.2,30.2-37.7,228.7,20.9,244.2
		c59.4,15.7,105.7-269,175-281c70.9-12.3,86.4,70.8,94.2,78.7c13.7,14,62.8,239.4,88.6,223.6"/>
	<path class="st8" d="M56.2,311.3c0,0,70.2-228.4,133.3-217.2c3.5,0.6,6.6,1.6,9.4,3c59.9,29.1-36.5,222.2,20.9,237.9
		c57.8,15.9,103.6-259.5,172.1-271.5c68.7-12.1,84.1,67.8,92.3,75.4c15.4,14.4,64.9,238.5,90.3,221.6"/>
	<path class="st9" d="M60.1,306c0,0,69.9-220.8,131.6-210.1c3.4,0.6,6.4,1.6,9.2,2.9c58.6,28.1-35.2,215.7,20.9,231.7
		c56.1,16,101.6-249.9,169.1-262.1c66.4-11.9,81.8,64.8,90.3,72.1c17.1,14.7,67,237.6,91.9,219.7"/>
	<path class="st10" d="M64,300.7c0,0,69.5-213.1,129.9-202.9c3.3,0.6,6.3,1.5,8.9,2.8c57.3,27-34,209.2,20.9,225.5
		c54.5,16.2,99.6-240.4,166.2-252.6c64.1-11.7,79.5,61.7,88.4,68.8c18.9,15,69.2,236.8,93.6,217.7"/>
	<path class="st11" d="M67.9,295.4c0,0,69.2-205.5,128.2-195.7c3.2,0.5,6.1,1.4,8.7,2.6c56,25.9-32.7,202.7,20.9,219.3
		c52.8,16.3,97.6-230.8,163.2-243.1c61.8-11.5,77.2,58.7,86.4,65.5c20.6,15.2,71.3,235.9,95.2,215.8"/>
	<path class="st12" d="M71.8,290.1c0,0,68.8-197.8,126.5-188.6c3.1,0.5,5.9,1.4,8.5,2.5c54.6,24.8-31.5,196.2,20.9,213.1
		c51.2,16.4,95.5-221.2,160.3-233.6c59.5-11.3,75,55.6,84.4,62.1c22.4,15.4,73.4,235,96.9,213.8"/>
	<path class="st13" d="M75.7,284.8c0,0,68.5-190.1,124.8-181.4c3,0.5,5.8,1.3,8.2,2.4c53.3,23.7-30.3,189.7,20.9,206.8
		c49.5,16.6,93.5-211.7,157.4-224.1c57.2-11.1,72.7,52.5,82.5,58.8c24.3,15.6,75.5,234.1,98.5,211.8"/>
	<path class="st14" d="M79.6,279.6c0,0,68.1-182.5,123-174.3c2.9,0.4,5.6,1.2,8,2.3c52,22.6-29,183.2,20.9,200.6
		c47.9,16.7,91.5-202.1,154.4-214.6c55-10.9,70.4,49.4,80.5,55.5c26.1,15.7,77.7,233.3,100.2,209.9"/>
	<path class="st15" d="M83.5,274.3c0,0,67.8-174.8,121.3-167.1c2.9,0.4,5.4,1.2,7.8,2.2c50.7,21.6-27.8,176.7,20.8,194.4
		c46.2,16.8,89.5-192.5,151.5-205.1c52.7-10.7,68.2,46.3,78.6,52.2c28,15.8,79.8,232.4,101.8,207.9"/>
	<path class="st16" d="M87.4,269c0,0,67.4-167.2,119.6-160c2.8,0.4,5.3,1.1,7.5,2c49.4,20.5-26.5,170.2,20.8,188.2
		c44.6,16.9,87.4-183,148.5-195.6c50.4-10.4,65.9,43.2,76.6,48.8c29.9,15.8,81.9,231.5,103.5,206"/>
	<path class="st17" d="M91.3,263.7c0,0,67.1-159.5,117.9-152.8c2.7,0.4,5.1,1,7.3,1.9c48.1,19.4-25.3,163.7,20.8,182
		c42.9,17,85.4-173.4,145.6-186.1c48.1-10.2,63.7,40.1,74.6,45.5c31.7,15.8,84,230.6,105.2,204"/>
	<path class="st18" d="M95.2,258.4c0,0,66.7-151.8,116.2-145.6c2.6,0.3,4.9,1,7.1,1.8c46.8,18.3-24,157.2,20.8,175.7
		c41.3,17.1,83.4-163.8,142.6-176.6c45.8-9.9,61.4,37,72.7,42.2c33.6,15.7,86.2,229.7,106.8,202.1"/>
	<path class="st19" d="M99.1,253.1c0,0,66.4-144.2,114.5-138.5c2.5,0.3,4.8,0.9,6.8,1.7c45.5,17.2-22.8,150.6,20.8,169.5
		c39.6,17.2,81.4-154.2,139.7-167.1c43.6-9.6,59.2,33.8,70.7,38.9c35.5,15.6,88.3,228.9,108.5,200.1"/>
	<path class="st20" d="M103,247.8c0,0,66-136.5,112.8-131.3c2.4,0.3,4.6,0.8,6.6,1.5c44.2,16.1-21.5,144.1,20.8,163.3
		c38,17.3,79.3-144.6,136.8-157.6c41.3-9.4,56.9,30.7,68.8,35.6c37.4,15.5,90.4,228,110.1,198.2"/>
	<path class="st21" d="M106.8,242.5c0,0,65.7-128.8,111-124.2c2.3,0.2,4.4,0.7,6.4,1.4c42.9,15-20.3,137.5,20.8,157.1
		c36.3,17.3,77.3-135,133.8-148.1c39-9.1,54.6,27.5,66.8,32.2c39.3,15.3,92.6,227.1,111.8,196.2"/>
	<path class="st22" d="M110.7,237.2c0,0,65.3-121.1,109.3-117c2.2,0.2,4.3,0.7,6.1,1.3c41.6,13.9-19,130.9,20.8,150.9
		c34.7,17.4,75.3-125.4,130.9-138.6c36.8-8.8,52.4,24.3,64.8,28.9c41.2,15.1,94.7,226.2,113.4,194.2"/>
	<path class="st23" d="M114.6,231.9c0,0,65-113.5,107.6-109.8c2.1,0.2,4.1,0.6,5.9,1.2c40.3,12.8-17.8,124.3,20.8,144.6
		c33.1,17.4,73.3-115.7,127.9-129.1c34.5-8.5,50.1,21.2,62.9,25.6c43.1,14.9,96.8,225.4,115.1,192.3"/>
	<path class="st24" d="M118.5,226.7c0,0,64.6-105.8,105.9-102.7c2.1,0.2,3.9,0.5,5.7,1.1c39,11.7-16.5,117.7,20.7,138.4
		c31.4,17.4,71.3-106.1,125-119.7c32.2-8.2,47.8,18,60.9,22.3c45,14.7,98.9,224.5,116.8,190.3"/>
	<path class="st25" d="M122.4,221.4c0,0,64.3-98.1,104.2-95.5c2,0.1,3.8,0.5,5.4,0.9c37.7,10.6-15.2,111.1,20.7,132.2
		c29.8,17.5,69.3-96.4,122-110.2c30-7.8,45.5,14.8,59,19c46.9,14.4,101.1,223.6,118.4,188.4"/>
	<path class="st26" d="M126.3,216.1c0,0,63.9-90.4,102.5-88.4c1.9,0.1,3.6,0.4,5.2,0.8c36.4,9.5-13.9,104.5,20.7,126
		c28.2,17.5,67.3-86.7,119.1-100.7c27.7-7.5,43.2,11.7,57,15.6c48.8,14.1,103.2,222.7,120.1,186.4"/>
	<path class="st27" d="M130.2,210.8c0,0,63.5-82.7,100.8-81.2c1.8,0.1,3.4,0.3,5,0.7c35.1,8.3-12.6,97.9,20.7,119.8
		c26.6,17.5,65.3-76.9,116.2-91.2c25.5-7.1,41,8.5,55,12.3C478.5,185,533.2,393,549.6,355.6"/>
	<path class="st28" d="M134.1,205.5c0,0,63.2-75,99-74c1.7,0,3.3,0.2,4.7,0.6c33.8,7.2-11.3,91.2,20.7,113.5
		c25,17.5,63.3-67.2,113.2-81.7c23.2-6.7,38.7,5.3,53.1,9c52.5,13.5,107.5,221,123.4,182.5"/>
	<path class="st29" d="M138,200.2c0,0,62.8-67.3,97.3-66.9c1.6,0,3.1,0.2,4.5,0.4c32.6,6.1-10,84.5,20.7,107.3
		c23.5,17.4,61.3-57.4,110.3-72.2c21-6.4,36.4,2.1,51.1,5.7c54.4,13.1,109.6,220.1,125,180.5"/>
	<path class="st30" d="M141.9,194.9c0,0,62.5-59.5,95.6-59.7c1.5,0,2.9,0.1,4.3,0.3c31.3,5-8.6,77.8,20.7,101.1
		c21.9,17.4,59.4-47.5,107.3-62.7c18.7-6,34.1-1.1,49.1,2.3c56.3,12.8,111.7,219.2,126.7,178.6"/>
	<path class="st31" d="M145.8,189.6c0,0,62.1-51.8,93.9-52.6c1.4,0,2.8,0,4.1,0.2c30,3.8-7.2,71.1,20.7,94.9
		c20.4,17.4,57.5-37.5,104.4-53.2c16.5-5.5,31.8-4.3,47.2-1c58.1,12.4,113.8,218.3,128.3,176.6"/>
	<path class="st32" d="M149.7,184.3c0,0,67.3-48,96-45.3s-5.8,64.4,20.7,88.7c24.7,22.7,80.4-61.3,146.7-48
		c60,12,116,217.5,130,174.7"/>
</g>
</svg>
